<svg xmlns="http://www.w3.org/2000/svg" xmlns:xlink="http://www.w3.org/1999/xlink" version="1.1" x="0px" y="0px" viewBox="0 0 3873 4841.25" style="enable-background:new 0 0 3873 3873;" xml:space="preserve"><g><g><path d="M3164.1,3699H708.9c-33.4,0-60.5-27.1-60.5-60.5v-366c0-33.4,27.1-60.5,60.5-60.5s60.5,27.1,60.5,60.5V3578h2334.2v-305.5    c0-33.4,27.1-60.5,60.5-60.5s60.5,27.1,60.5,60.5v366C3224.6,3671.9,3197.5,3699,3164.1,3699z"/></g><g><path d="M3164.1,2399.4c-33.4,0-60.5-27.1-60.5-60.5V961.5h-617.5c-33.4,0-60.5-27.1-60.5-60.5V295H769.4v2043.8    c0,33.4-27.1,60.5-60.5,60.5s-60.5-27.1-60.5-60.5V234.5c0-33.4,27.1-60.5,60.5-60.5h1777.2c33.4,0,60.5,27.1,60.5,60.5v605.9    h617.5c33.4,0,60.5,27.1,60.5,60.5v1437.9C3224.6,2372.3,3197.5,2399.4,3164.1,2399.4z"/></g><g><path d="M3164.1,961.5c-15.3,0-30.6-5.8-42.4-17.4l-678-666.5c-23.8-23.4-24.2-61.7-0.7-85.6c23.4-23.8,61.7-24.2,85.6-0.7    l678,666.5c23.8,23.4,24.2,61.7,0.7,85.6C3195.4,955.4,3179.8,961.5,3164.1,961.5z"/></g><g><path d="M3346.3,3332.9H526.7c-69.6,0-126.2-56.6-126.2-126.2v-802.3c0-69.6,56.6-126.2,126.2-126.2h2819.6    c69.6,0,126.2,56.6,126.2,126.2v802.3C3472.4,3276.3,3415.8,3332.9,3346.3,3332.9z M526.7,2399.4c-2.8,0-5.1,2.3-5.1,5.1v802.3    c0,2.8,2.3,5.1,5.1,5.1h2819.6c2.8,0,5.1-2.3,5.1-5.1v-802.3c0-2.8-2.3-5.1-5.1-5.1H526.7z"/></g><g><path d="M2417.2,1929.6c-15,0-30-5.5-41.8-16.7c-24.2-23.1-25.1-61.4-2-85.6l197.8-207.4l-197.8-207.4    c-23.1-24.2-22.2-62.5,2-85.6s62.5-22.2,85.6,2l237.7,249.2c22.3,23.4,22.3,60.2,0,83.5L2461,1910.8    C2449.1,1923.3,2433.2,1929.6,2417.2,1929.6z"/></g><g><path d="M1455.8,1929.6c-16,0-31.9-6.3-43.8-18.7l-237.7-249.2c-22.3-23.4-22.3-60.2,0-83.5L1412,1329c23.1-24.2,61.4-25.1,85.6-2    s25.1,61.4,2,85.6L1301.8,1620l197.8,207.4c23.1,24.2,22.2,62.5-2,85.6C1485.8,1924,1470.8,1929.6,1455.8,1929.6z"/></g><g><path d="M1831.6,1983.7c-6.6,0-13.2-1.1-19.8-3.3c-31.6-10.9-48.3-45.4-37.4-77l209.8-606.5c10.9-31.6,45.4-48.3,77-37.4    c31.6,10.9,48.3,45.4,37.4,77L1888.8,1943C1880.1,1968,1856.7,1983.7,1831.6,1983.7z"/></g><g><g><g><path d="M2442.6,3113.3c-170,0-308.3-138.3-308.3-308.3s138.3-308.2,308.3-308.2c100.6,0,195,49.2,252.7,131.7      c19.1,27.4,12.5,65.1-14.9,84.3s-65.1,12.5-84.3-14.9c-35-50.1-92.4-80.1-153.5-80.1c-103.2,0-187.2,84-187.2,187.2      s84,187.2,187.2,187.2c81.8,0,153.5-52.3,178.4-130c10.2-31.8,44.3-49.4,76.1-39.2s49.4,44.2,39.2,76.1      c-19.8,61.7-57.9,114.9-110.2,153.7C2572.7,3092.3,2509.2,3113.3,2442.6,3113.3z"/></g><g><path d="M2679,2941.2h-204.2c-33.4,0-60.5-27.1-60.5-60.5s27.1-60.5,60.5-60.5H2679c33.4,0,60.5,27.1,60.5,60.5      S2712.4,2941.2,2679,2941.2z"/></g></g><g><path d="M1448.2,3114.2H1194c-33.4,0-60.5-27.1-60.5-60.5v-497.4c0-33.4,27.1-60.5,60.5-60.5s60.5,27.1,60.5,60.5v436.8h193.6     c33.4,0,60.5,27.1,60.5,60.5S1481.6,3114.2,1448.2,3114.2z"/></g><g><path d="M1790.6,3115.5c-76.3,0-147.7-33.1-200.8-93.3c-51.3-58-79.6-134.7-79.6-215.9s28.3-157.9,79.6-215.9     c53.2-60.1,124.5-93.3,200.8-93.3s147.7,33.1,200.9,93.3c51.3,58,79.6,134.7,79.6,215.9s-28.3,157.9-79.6,215.9     C1938.2,3082.3,1866.9,3115.5,1790.6,3115.5z M1790.6,2618.1c-87.9,0-159.4,84.4-159.4,188.2s71.5,188.2,159.4,188.2     S1950,2910,1950,2806.3C1950,2702.5,1878.5,2618.1,1790.6,2618.1z"/></g></g></g><text x="0" y="3888" fill="#000000" font-size="5px" font-weight="bold" font-family="'Helvetica Neue', Helvetica, Arial-Unicode, Arial, Sans-serif">Created by Graphixs_Art</text><text x="0" y="3893" fill="#000000" font-size="5px" font-weight="bold" font-family="'Helvetica Neue', Helvetica, Arial-Unicode, Arial, Sans-serif">from the Noun Project</text></svg>